{"title":"Delivering Milo - 2001 - DVDRip - XVID MP3","uid":6692965,"size":736028672,"categoryP":"video","categoryS":"movies","magnet":"?xt=urn:btih:9a4f90df6dd43641ff7dd2b818fa364e6ca63f92&amp;dn=Delivering+Milo+-+2001+-+DVDRip+-+XVID+MP3&amp;tr=udp%3A%2F%2Ftracker.openbittorrent.com%3A80&amp;tr=udp%3A%2F%2Fopen.demonii.com%3A1337&amp;tr=udp%3A%2F%2Ftracker.coppersurfer.tk%3A6969&amp;tr=udp%3A%2F%2Fexodus.desync.com%3A6969","seeders":0,"leechers":0,"uploader":"skepticink","files":1,"time":1316679736,"description":"Delivering Milo - 2001 - DVDRip - XVID MP3\n==========================================\n\nIMDb : http://www.imdb.com/title/tt0212910/\n\n\nA guardian angel has 24 hours to convince a soul that life on Earth is worth the effort.\n\nStarring\nAnton Yelchin, Albert Finney, Bridget Fonda\n\n===========\n\nGeneral\nFormat                           : AVI\nFormat/Info                      : Audio Video Interleave\nFile size                        : 702 MiB\nDuration                         : 1h 34mn\nOverall bit rate                 : 1 040 Kbps\nWriting application              : VirtualDubMod 1.5.4.1 (build 2178/release)\nWriting library                  : VirtualDubMod build 2178/release\n\nVideo\nID                               : 0\nFormat                           : MPEG-4 Visual\nFormat profile                   : Advanced Simple@L5\nFormat settings, BVOP            : 1\nFormat settings, QPel            : No\nFormat settings, GMC             : No warppoints\nFormat settings, Matrix          : Custom\nCodec ID                         : XVID\nCodec ID/Hint                    : XviD\nDuration                         : 1h 34mn\nBit rate                         : 926 Kbps\nWidth                            : 624 pixels\nHeight                           : 352 pixels\nDisplay aspect ratio             : 16:9\nFrame rate                       : 23.976 fps\nColor space                      : YUV\nChroma subsampling               : 4:2:0\nBit depth                        : 8 bits\nScan type                        : Progressive\nCompression mode                 : Lossy\nBits/(Pixel*Frame)               : 0.176\nStream size                      : 625 MiB (89%)\nWriting library                  : XviD 1.2.0.dev47 (UTC 2006-11-01)\n\nAudio\nID                               : 1\nFormat                           : MPEG Audio\nFormat version                   : Version 1\nFormat profile                   : Layer 3\nMode                             : Joint stereo\nMode extension                   : MS Stereo\nCodec ID                         : 55\nCodec ID/Hint                    : MP3\nDuration                         : 1h 34mn\nBit rate mode                    : Variable\nBit rate                         : 102 Kbps\nNominal bit rate                 : 112 Kbps\nChannel(s)                       : 2 channels\nSampling rate                    : 44.1 KHz\nCompression mode                 : Lossy\nStream size                      : 68.9 MiB (10%)\nAlignment                        : Aligned on interleaves\nInterleave, duration             : 26 ms (0.63 video frame)\nInterleave, preload duration     : 551 ms\nWriting library                  : LAME3.98r\nEncoding settings                : -m j -V 4 -q 2 -lowpass 15.6 --abr 112\n","torrent":{"xt":"urn:btih:9a4f90df6dd43641ff7dd2b818fa364e6ca63f92","amp;dn":"Delivering+Milo+-+2001+-+DVDRip+-+XVID+MP3","amp;tr":["udp%3A%2F%2Ftracker.openbittorrent.com%3A80","udp%3A%2F%2Fopen.demonii.com%3A1337","udp%3A%2F%2Ftracker.coppersurfer.tk%3A6969","udp%3A%2F%2Fexodus.desync.com%3A6969"],"infoHash":"9a4f90df6dd43641ff7dd2b818fa364e6ca63f92","infoHashBuffer":{"type":"Buffer","data":[154,79,144,223,109,212,54,65,255,125,210,184,24,250,54,78,108,166,63,146]},"announce":[],"urlList":[]}}